<svg width="22" height="20" viewBox="0 0 22 20" fill="none" xmlns="http://www.w3.org/2000/svg">
<path d="M19.093 4.46973H2.87709C1.75761 4.46973 0.850098 5.39576 0.850098 6.53809V16.8799C0.850098 18.0222 1.75761 18.9483 2.87709 18.9483H19.093C20.2125 18.9483 21.12 18.0222 21.12 16.8799V6.53809C21.12 5.39576 20.2125 4.46973 19.093 4.46973Z" stroke="#BABBC1" stroke-width="1.7" stroke-linecap="round" stroke-linejoin="round"/>
<path d="M14.6048 18.9483V2.861C14.6048 2.32768 14.395 1.8162 14.0217 1.43908C13.6484 1.06196 13.142 0.850098 12.614 0.850098H8.6324C8.10441 0.850098 7.59804 1.06196 7.22469 1.43908C6.85135 1.8162 6.6416 2.32768 6.6416 2.861V18.9483" stroke="#BABBC1" stroke-width="1.7" stroke-linecap="round" stroke-linejoin="round"/>
</svg>
