<svg width="21" height="18" viewBox="0 0 21 18" fill="none" xmlns="http://www.w3.org/2000/svg">
<path d="M15.4727 0.849609C16.0824 0.849609 16.6868 0.974886 17.252 1.21777C17.7465 1.43034 18.2033 1.72993 18.6016 2.10449L18.7686 2.26953C19.2044 2.72147 19.5525 3.25988 19.79 3.85449C20.0276 4.44917 20.1504 5.08797 20.1504 5.7334C20.1504 6.37884 20.0276 7.0176 19.79 7.6123C19.5525 8.20702 19.2045 8.74526 18.7686 9.19727L17.7041 10.3027L12.0479 16.1699C11.2024 17.0469 9.79771 17.0467 8.95215 16.1699L3.2959 10.3027L2.23047 9.19727C1.34996 8.28373 0.849609 7.03818 0.849609 5.7334C0.849671 4.42859 1.34986 3.18304 2.23047 2.26953C3.11004 1.35713 4.29642 0.850702 5.52637 0.850586C6.75647 0.850586 7.94357 1.35703 8.82324 2.26953L9.8877 3.37402C10.0479 3.54021 10.2692 3.63477 10.5 3.63477C10.7307 3.63469 10.9512 3.54014 11.1113 3.37402L12.1768 2.26953C12.6124 1.81738 13.1282 1.46071 13.6934 1.21777C14.2585 0.97488 14.8629 0.849612 15.4727 0.849609Z" stroke="#BABBC1" stroke-width="1.7" stroke-linecap="round" stroke-linejoin="round"/>
</svg>
