<svg width="21" height="21" viewBox="0 0 21 21" fill="none" xmlns="http://www.w3.org/2000/svg">
<path d="M16.6504 18.098V16.6501C16.6504 15.8821 16.3262 15.1456 15.7492 14.6025C15.1722 14.0595 14.3897 13.7544 13.5737 13.7544H7.42032C6.60433 13.7544 5.82176 14.0595 5.24477 14.6025C4.66778 15.1456 4.34363 15.8821 4.34363 16.6501V18.098" stroke="#BABBC1" stroke-width="1.7" stroke-linecap="round" stroke-linejoin="round"/>
<path d="M10.4969 11.5827C12.2961 11.5827 13.7546 10.1242 13.7546 8.32505C13.7546 6.52589 12.2961 5.06738 10.4969 5.06738C8.69777 5.06738 7.23926 6.52589 7.23926 8.32505C7.23926 10.1242 8.69777 11.5827 10.4969 11.5827Z" stroke="#BABBC1" stroke-width="1.7" stroke-linecap="round" stroke-linejoin="round"/>
<circle cx="10.4969" cy="10.4969" r="9.64693" stroke="#BABBC1" stroke-width="1.7"/>
</svg>
