<svg width="22" height="20" viewBox="0 0 22 20" fill="none" xmlns="http://www.w3.org/2000/svg">
<path d="M1.51386 3.92924C1.1039 4.15932 0.850098 4.5928 0.850098 5.06291V16.56C0.850098 17.5537 1.91977 18.18 2.78634 17.6936L6.70372 15.4951C7.07679 15.2857 7.52899 15.2733 7.91299 15.4619L14.0571 18.4791C14.4411 18.6677 14.8933 18.6552 15.2664 18.4459L20.4563 15.5332C20.8662 15.3031 21.12 14.8696 21.12 14.3995V2.90246C21.12 1.90875 20.0504 1.28245 19.1838 1.76879L15.2664 3.96733C14.8933 4.1767 14.4411 4.18913 14.0571 4.00055L7.91299 0.983336C7.52899 0.794763 7.07679 0.807189 6.70372 1.01656L1.51386 3.92924Z" stroke="#BABBC1" stroke-width="1.7" stroke-linecap="round" stroke-linejoin="round"/>
<path d="M7.36572 1.40625V15.1609" stroke="#BABBC1" stroke-width="1.7" stroke-linecap="round" stroke-linejoin="round"/>
<path d="M14.605 4.30176V18.0564" stroke="#BABBC1" stroke-width="1.7" stroke-linecap="round" stroke-linejoin="round"/>
</svg>
