<svg width="19" height="19" viewBox="0 0 19 19" fill="none" xmlns="http://www.w3.org/2000/svg">
<path d="M12.667 16.625V15.0417C12.667 14.2018 12.3334 13.3964 11.7395 12.8025C11.1456 12.2086 10.3402 11.875 9.50033 11.875H3.95866C3.11881 11.875 2.31335 12.2086 1.71949 12.8025C1.12562 13.3964 0.791992 14.2018 0.791992 15.0417V16.625" stroke="#515155" stroke-width="1.3" stroke-linecap="round" stroke-linejoin="round"/>
<path d="M6.72917 8.70833C8.47807 8.70833 9.89583 7.29057 9.89583 5.54167C9.89583 3.79276 8.47807 2.375 6.72917 2.375C4.98026 2.375 3.5625 3.79276 3.5625 5.54167C3.5625 7.29057 4.98026 8.70833 6.72917 8.70833Z" stroke="#515155" stroke-width="1.3" stroke-linecap="round" stroke-linejoin="round"/>
<path d="M15.833 6.33334V11.0833" stroke="#515155" stroke-width="1.3" stroke-linecap="round" stroke-linejoin="round"/>
<path d="M18.208 8.70834H13.458" stroke="#515155" stroke-width="1.3" stroke-linecap="round" stroke-linejoin="round"/>
</svg>
