<svg width="17" height="15" viewBox="0 0 17 15" fill="none" xmlns="http://www.w3.org/2000/svg">
<path d="M12.5254 0.75C13.0062 0.75 13.4839 0.852559 13.9316 1.05273C14.3793 1.25293 14.7902 1.54766 15.1387 1.92383V1.9248C15.4876 2.30111 15.7674 2.75102 15.959 3.25C16.1505 3.74887 16.25 4.2852 16.25 4.82812C16.25 5.37124 16.1506 5.9082 15.959 6.40723C15.7674 6.90614 15.4875 7.35616 15.1387 7.73242L14.2773 8.66211L10.1504 13.1162C9.26004 14.0769 7.74005 14.0767 6.84961 13.1162L2.72266 8.66211L1.86035 7.73242C1.15502 6.97129 0.75 5.92726 0.75 4.82812C0.75005 3.72904 1.15504 2.68492 1.86035 1.92383C2.5638 1.16484 3.50539 0.750124 4.47363 0.75C5.44205 0.75 6.38433 1.16469 7.08789 1.92383L7.94922 2.85449C8.09115 3.00765 8.29119 3.09473 8.5 3.09473C8.70873 3.09467 8.90792 3.00759 9.0498 2.85449L9.91211 1.92383C10.2606 1.54766 10.6715 1.25295 11.1191 1.05273C11.5668 0.852574 12.0446 0.750015 12.5254 0.75Z" fill="#FF7373" stroke="#FF7373" stroke-width="1.5" stroke-linecap="round" stroke-linejoin="round"/>
</svg>
