<svg width="19" height="19" viewBox="0 0 19 19" fill="none" xmlns="http://www.w3.org/2000/svg">
<path d="M13.332 1.25C13.8496 1.25 14.3645 1.36051 14.8467 1.57812C15.2688 1.76863 15.6599 2.03916 16.0029 2.37793L16.1475 2.52734C16.5234 2.93663 16.8247 3.42586 17.0312 3.96875C17.2379 4.51188 17.3457 5.09635 17.3457 5.6875C17.3457 6.27868 17.2379 6.8631 17.0312 7.40625C16.8247 7.94915 16.5234 8.43835 16.1475 8.84766V8.84863L15.2295 9.84766L10.7051 14.7764C9.81351 15.7475 8.28122 15.7475 7.38965 14.7764L2.86523 9.84766L1.94727 8.84863C1.18692 8.02047 0.75 6.88398 0.75 5.6875C0.750019 4.49115 1.18706 3.35547 1.94727 2.52734C2.70564 1.70133 3.72024 1.25098 4.7627 1.25098C5.80501 1.25109 6.81887 1.70143 7.57715 2.52734L8.49512 3.52637C8.63715 3.68104 8.83785 3.76953 9.04785 3.76953C9.25767 3.7694 9.45768 3.68091 9.59961 3.52637L10.5176 2.52734C10.8934 2.11786 11.336 1.79584 11.8184 1.57812C12.3004 1.3606 12.8146 1.25006 13.332 1.25Z" stroke="white" stroke-width="1.5" stroke-linecap="round" stroke-linejoin="round"/>
</svg>
