<svg width="18" height="17" viewBox="0 0 18 17" fill="none" xmlns="http://www.w3.org/2000/svg">
<path d="M16.75 14.0357C16.75 14.4904 16.5627 14.9264 16.2293 15.2479C15.8959 15.5694 15.4437 15.75 14.9722 15.75H14.0833C13.6118 15.75 13.1597 15.5694 12.8263 15.2479C12.4929 14.9264 12.3056 14.4904 12.3056 14.0357V11.4643C12.3056 11.0096 12.4929 10.5736 12.8263 10.2521C13.1597 9.93061 13.6118 9.75 14.0833 9.75H16.75V14.0357ZM0.75 14.0357C0.75 14.4904 0.937301 14.9264 1.2707 15.2479C1.6041 15.5694 2.05628 15.75 2.52778 15.75H3.41667C3.88816 15.75 4.34035 15.5694 4.67375 15.2479C5.00714 14.9264 5.19444 14.4904 5.19444 14.0357V11.4643C5.19444 11.0096 5.00714 10.5736 4.67375 10.2521C4.34035 9.93061 3.88816 9.75 3.41667 9.75H0.75V14.0357Z" stroke="#BABBC1" stroke-width="1.5" stroke-linecap="round" stroke-linejoin="round"/>
<path d="M0.75 13.75V8.55C0.75 6.48131 1.59285 4.49735 3.09315 3.03457C4.59344 1.57178 6.62827 0.75 8.75 0.75C10.8717 0.75 12.9066 1.57178 14.4069 3.03457C15.9071 4.49735 16.75 6.48131 16.75 8.55V13.75" stroke="#BABBC1" stroke-width="1.5" stroke-linecap="round" stroke-linejoin="round"/>
</svg>
