<svg width="187" height="77" viewBox="0 0 187 77" fill="none" xmlns="http://www.w3.org/2000/svg">
<g clip-path="url(#clip0_1404_5293)">
<path d="M10.785 44.2869L15.599 26.3556L15.6063 26.3338C16.4141 23.2243 17.1673 21.748 17.6585 21.0553C18.0697 20.4757 18.5864 20.2388 19.4451 20.2388H21.632C22.4689 20.2388 22.9674 20.4684 23.3531 21.0262C24.0481 22.0359 24.7831 23.8841 25.4745 26.3593L30.2885 44.2906C30.9325 46.6856 33.1084 48.3588 35.5864 48.3588C37.3111 48.3588 38.9013 47.5714 39.9492 46.1934C40.9971 44.8155 41.3319 43.073 40.8734 41.4071L35.9102 23.3446C35.3754 21.3178 34.7495 19.4769 34.0545 17.8693C33.3086 16.1488 32.388 14.6469 31.3218 13.4111C30.172 12.0806 28.7857 11.0599 27.1956 10.3673C25.6418 9.69654 23.8225 9.35388 21.7957 9.35388H19.2741C17.2437 9.35388 15.428 9.69654 13.8743 10.3673C12.2842 11.0562 10.8978 12.0806 9.748 13.4111C8.68186 14.6469 7.76127 16.1451 7.01898 17.8693C6.32399 19.4696 5.70177 21.3069 5.17052 23.3191L0.200056 41.4035C-0.25842 43.0694 0.0799792 44.8155 1.12429 46.1934C2.17223 47.5677 3.76234 48.3588 5.48709 48.3588C7.9614 48.3588 10.141 46.6856 10.785 44.2906V44.2869Z" fill="white"/>
<path d="M172.449 7.66609V54.913C172.449 59.7321 168.537 63.6508 163.727 63.6508H143.233C138.045 63.6508 133.824 59.4223 133.824 54.2241V45.5227H152.214C158.017 45.5227 162.741 40.7911 162.741 34.9768V21.4636C162.741 14.789 157.319 9.35751 150.656 9.35751H127.969C125.022 9.35751 122.624 11.7598 122.624 14.7125C122.624 17.6652 125.022 20.0675 127.969 20.0675H148.692C149.452 20.0675 150.162 20.3627 150.696 20.9022C151.231 21.4417 151.522 22.1562 151.515 22.9181L151.45 31.9293C151.439 33.4239 150.216 34.6378 148.724 34.6378H88.7148C87.0592 34.6378 85.7457 34.5321 84.8105 34.3206C83.9154 34.1201 83.5588 33.8467 83.446 33.741C83.2459 33.5515 83.1258 33.3109 83.0603 32.9609C82.922 32.2537 82.8529 31.3242 82.8529 30.1978V23.0457C82.8529 21.4964 84.1119 20.2351 85.6583 20.2351H105.97C108.964 20.2351 111.402 17.7928 111.402 14.7927C111.402 11.7926 108.964 9.35022 105.97 9.35022H83.8353C77.1183 9.35022 71.653 14.8255 71.653 21.5547V30.0301C71.653 32.7641 71.8931 35.0934 72.3625 36.9526C72.9083 39.096 73.909 40.8567 75.3426 42.1763C76.7508 43.4777 78.6465 44.3854 80.9826 44.8702C83.053 45.304 85.611 45.5154 88.7985 45.5154H122.62V54.6724C122.62 55.5473 122.62 56.743 122.715 57.8985C122.886 59.991 123.745 62.0105 125.153 63.6436H57.7349V34.1639H62.0796C65.0742 34.1639 67.5121 31.7215 67.5121 28.7214C67.5121 25.7213 65.0742 23.279 62.0796 23.279H57.7349V13.0976C57.7349 10.0975 55.297 7.65515 52.3024 7.65515H51.964C48.9693 7.65515 46.5314 10.0975 46.5314 13.0976V63.6399H22.0029C20.7767 63.6399 19.9216 63.2207 19.525 62.4333C19.0156 61.4126 19.3321 59.929 20.3728 58.5328L21.0751 57.4976C21.9775 56.167 22.0175 54.6323 21.1879 53.1779C19.9907 51.0818 17.3017 49.6747 14.7801 49.8278C13.1172 49.8278 11.5235 50.6188 10.5119 51.9421L7.60823 55.7405C4.92287 59.3202 4.49714 64.03 6.49479 68.0325C8.49243 72.0351 12.5059 74.5248 16.9742 74.5248H164.676C175.138 74.5248 183.648 65.9984 183.648 55.5182V7.66609H172.449Z" fill="white"/>
<path d="M128.26 47.8848C132.478 47.8848 135.898 44.4591 135.898 40.2333C135.898 36.0075 132.478 32.5818 128.26 32.5818C124.042 32.5818 120.623 36.0075 120.623 40.2333C120.623 44.4591 124.042 47.8848 128.26 47.8848Z" fill="#17D383"/>
<path d="M128.26 49.1753C123.337 49.1753 119.331 45.1618 119.331 40.2297C119.331 35.2976 123.337 31.2841 128.26 31.2841C133.184 31.2841 137.19 35.2976 137.19 40.2297C137.19 45.1618 133.184 49.1753 128.26 49.1753ZM128.26 33.8722C124.76 33.8722 121.911 36.7265 121.911 40.2333C121.911 43.7401 124.76 46.5944 128.26 46.5944C131.761 46.5944 134.61 43.7401 134.61 40.2333C134.61 36.7265 131.761 33.8722 128.26 33.8722Z" fill="white"/>
<path d="M179.825 16.3991C183.93 15.4284 186.473 11.3074 185.504 7.19459C184.535 3.08178 180.422 0.534598 176.316 1.50531C172.211 2.47602 169.668 6.59703 170.637 10.7098C171.606 14.8227 175.72 17.3698 179.825 16.3991Z" fill="#17D383"/>
<path d="M178.07 17.8876C173.147 17.8876 169.141 13.8741 169.141 8.94196C169.141 4.00985 173.147 0 178.07 0C182.994 0 187 4.01349 187 8.94561C187 13.8777 182.994 17.8912 178.07 17.8912V17.8876ZM178.07 2.58453C174.57 2.58453 171.721 5.43881 171.721 8.94561C171.721 12.4524 174.57 15.3067 178.07 15.3067C181.571 15.3067 184.42 12.4524 184.42 8.94561C184.42 5.43881 181.571 2.58453 178.07 2.58453Z" fill="white"/>
<path d="M51.9858 75.7059C56.2039 75.7059 59.6234 72.2802 59.6234 68.0544C59.6234 63.8285 56.2039 60.4028 51.9858 60.4028C47.7676 60.4028 44.3481 63.8285 44.3481 68.0544C44.3481 72.2802 47.7676 75.7059 51.9858 75.7059Z" fill="#17D383"/>
<path d="M51.986 77C47.0628 77 43.0566 72.9865 43.0566 68.0544C43.0566 63.1223 47.0628 59.1088 51.986 59.1088C56.9092 59.1088 60.9154 63.1223 60.9154 68.0544C60.9154 72.9865 56.9092 77 51.986 77ZM51.986 61.6933C48.4856 61.6933 45.6365 64.5476 45.6365 68.0544C45.6365 71.5612 48.4856 74.4154 51.986 74.4154C55.4864 74.4154 58.3355 71.5612 58.3355 68.0544C58.3355 64.5476 55.4864 61.6933 51.986 61.6933Z" fill="white"/>
</g>
<defs>
<clipPath id="clip0_1404_5293">
<rect width="187" height="77" fill="white"/>
</clipPath>
</defs>
</svg>
