<svg width="514" height="212" viewBox="0 0 514 212" fill="none" xmlns="http://www.w3.org/2000/svg">
<mask id="mask0_955_8370" style="mask-type:luminance" maskUnits="userSpaceOnUse" x="0" y="0" width="514" height="212">
<path d="M513.92 0H0V211.23H513.92V0Z" fill="white"/>
</mask>
<g mask="url(#mask0_955_8370)">
<path d="M29.6398 121.49L42.8698 72.2999L42.8898 72.2399C45.1098 63.7099 47.1798 59.6599 48.5298 57.7599C49.6598 56.1699 51.0798 55.5199 53.4398 55.5199H59.4498C61.7498 55.5199 63.1198 56.1499 64.1798 57.6799C66.0898 60.4499 68.1098 65.5199 70.0098 72.3099L83.2398 121.5C85.0098 128.07 90.9898 132.66 97.7998 132.66C102.54 132.66 106.91 130.5 109.79 126.72C112.67 122.94 113.59 118.16 112.33 113.59L98.6898 64.0399C97.2198 58.4799 95.4998 53.4299 93.5898 49.0199C91.5398 44.2999 89.0098 40.1799 86.0798 36.7899C82.9198 33.1399 79.1098 30.3399 74.7398 28.4399C70.4698 26.5999 65.4698 25.6599 59.8998 25.6599H52.9698C47.3898 25.6599 42.3998 26.5999 38.1298 28.4399C33.7598 30.3299 29.9498 33.1399 26.7898 36.7899C23.8598 40.1799 21.3298 44.2899 19.2898 49.0199C17.3798 53.4099 15.6698 58.4499 14.2098 63.9699L0.549802 113.58C-0.710198 118.15 0.219802 122.94 3.0898 126.72C5.9698 130.49 10.3398 132.66 15.0798 132.66C21.8798 132.66 27.8698 128.07 29.6398 121.5V121.49Z" fill="#1CD400"/>
<path d="M473.93 21.03V150.64C473.93 163.86 463.18 174.61 449.96 174.61H393.64C379.38 174.61 367.78 163.01 367.78 148.75V124.88H418.32C434.27 124.88 447.25 111.9 447.25 95.95V58.88C447.25 40.57 432.35 25.67 414.04 25.67H351.69C343.59 25.67 337 32.26 337 40.36C337 48.46 343.59 55.05 351.69 55.05H408.64C410.73 55.05 412.68 55.86 414.15 57.34C415.62 58.82 416.42 60.78 416.4 62.87L416.22 87.59C416.19 91.69 412.83 95.02 408.73 95.02H243.81C239.26 95.02 235.65 94.73 233.08 94.15C230.62 93.6 229.64 92.85 229.33 92.56C228.78 92.04 228.45 91.38 228.27 90.42C227.89 88.48 227.7 85.93 227.7 82.84V63.22C227.7 58.97 231.16 55.51 235.41 55.51H291.23C299.46 55.51 306.16 48.81 306.16 40.58C306.16 32.35 299.46 25.65 291.23 25.65H230.4C211.94 25.65 196.92 40.67 196.92 59.13V82.38C196.92 89.88 197.58 96.27 198.87 101.37C200.37 107.25 203.12 112.08 207.06 115.7C210.93 119.27 216.14 121.76 222.56 123.09C228.25 124.28 235.28 124.86 244.04 124.86H336.99V149.98C336.99 152.38 336.99 155.66 337.25 158.83C337.72 164.57 340.08 170.11 343.95 174.59H158.67V93.72H170.61C178.84 93.72 185.54 87.02 185.54 78.79C185.54 70.56 178.84 63.86 170.61 63.86H158.67V35.93C158.67 27.7 151.97 21 143.74 21H142.81C134.58 21 127.88 27.7 127.88 35.93V174.58H60.4697C57.0997 174.58 54.7497 173.43 53.6597 171.27C52.2597 168.47 53.1297 164.4 55.9897 160.57L57.9197 157.73C60.3997 154.08 60.5097 149.87 58.2297 145.88C54.9397 140.13 47.5497 136.27 40.6197 136.69C36.0497 136.69 31.6697 138.86 28.8897 142.49L20.9097 152.91C13.5297 162.73 12.3597 175.65 17.8497 186.63C23.3397 197.61 34.3697 204.44 46.6497 204.44H452.57C481.32 204.44 504.71 181.05 504.71 152.3V21.03H473.93Z" fill="#1CD400"/>
<path d="M352.49 131.36C364.082 131.36 373.48 121.963 373.48 110.37C373.48 98.7777 364.082 89.3801 352.49 89.3801C340.898 89.3801 331.5 98.7777 331.5 110.37C331.5 121.963 340.898 131.36 352.49 131.36Z" fill="white"/>
<path d="M352.49 134.9C338.96 134.9 327.95 123.89 327.95 110.36C327.95 96.8301 338.96 85.8201 352.49 85.8201C366.02 85.8201 377.03 96.8301 377.03 110.36C377.03 123.89 366.02 134.9 352.49 134.9ZM352.49 92.9201C342.87 92.9201 335.04 100.75 335.04 110.37C335.04 119.99 342.87 127.82 352.49 127.82C362.11 127.82 369.94 119.99 369.94 110.37C369.94 100.75 362.11 92.9201 352.49 92.9201Z" fill="#1CD400"/>
<path d="M494.202 44.9869C505.485 42.324 512.472 31.019 509.809 19.7366C507.146 8.45415 495.842 1.46661 484.559 4.12951C473.277 6.79241 466.289 18.0973 468.952 29.3798C471.615 40.6622 482.92 47.6498 494.202 44.9869Z" fill="white"/>
<path d="M489.38 49.07C475.85 49.07 464.84 38.06 464.84 24.53C464.84 11 475.85 0 489.38 0C502.91 0 513.92 11.01 513.92 24.54C513.92 38.07 502.91 49.08 489.38 49.08V49.07ZM489.38 7.09C479.76 7.09 471.93 14.92 471.93 24.54C471.93 34.16 479.76 41.99 489.38 41.99C499 41.99 506.83 34.16 506.83 24.54C506.83 14.92 499 7.09 489.38 7.09Z" fill="#1CD400"/>
<path d="M142.87 207.68C154.462 207.68 163.86 198.282 163.86 186.69C163.86 175.097 154.462 165.7 142.87 165.7C131.277 165.7 121.88 175.097 121.88 186.69C121.88 198.282 131.277 207.68 142.87 207.68Z" fill="white"/>
<path d="M142.87 211.23C129.34 211.23 118.33 200.22 118.33 186.69C118.33 173.16 129.34 162.15 142.87 162.15C156.4 162.15 167.41 173.16 167.41 186.69C167.41 200.22 156.4 211.23 142.87 211.23ZM142.87 169.24C133.25 169.24 125.42 177.07 125.42 186.69C125.42 196.31 133.25 204.14 142.87 204.14C152.49 204.14 160.32 196.31 160.32 186.69C160.32 177.07 152.49 169.24 142.87 169.24Z" fill="#1CD400"/>
</g>
</svg>
