<svg width="21" height="21" viewBox="0 0 21 21" fill="none" xmlns="http://www.w3.org/2000/svg">
<path d="M10.2501 12.841C11.681 12.841 12.841 11.681 12.841 10.2501C12.841 8.81917 11.681 7.65918 10.2501 7.65918C8.81917 7.65918 7.65918 8.81917 7.65918 10.2501C7.65918 11.681 8.81917 12.841 10.2501 12.841Z" stroke="#BABBC1" stroke-width="1.5" stroke-linecap="round" stroke-linejoin="round"/>
<path d="M16.6409 12.8409C16.5259 13.1014 16.4917 13.3903 16.5425 13.6705C16.5932 13.9507 16.7268 14.2092 16.9259 14.4127L16.9777 14.4645C17.1383 14.625 17.2657 14.8155 17.3526 15.0251C17.4396 15.2348 17.4843 15.4596 17.4843 15.6866C17.4843 15.9136 17.4396 16.1383 17.3526 16.348C17.2657 16.5577 17.1383 16.7482 16.9777 16.9086C16.8173 17.0692 16.6268 17.1966 16.4171 17.2836C16.2074 17.3705 15.9827 17.4152 15.7557 17.4152C15.5287 17.4152 15.3039 17.3705 15.0942 17.2836C14.8846 17.1966 14.6941 17.0692 14.5336 16.9086L14.4818 16.8568C14.2783 16.6577 14.0198 16.5242 13.7396 16.4734C13.4594 16.4226 13.1705 16.4569 12.91 16.5718C12.6546 16.6813 12.4367 16.8631 12.2833 17.0948C12.1298 17.3265 12.0475 17.598 12.0464 17.8759V18.0227C12.0464 18.4808 11.8644 18.9202 11.5405 19.2441C11.2165 19.568 10.7772 19.75 10.3191 19.75C9.86099 19.75 9.42165 19.568 9.09773 19.2441C8.7738 18.9202 8.59182 18.4808 8.59182 18.0227V17.945C8.58513 17.6591 8.4926 17.3819 8.32626 17.1493C8.15992 16.9168 7.92745 16.7396 7.65909 16.6409C7.3986 16.5259 7.10965 16.4917 6.82949 16.5425C6.54933 16.5932 6.29081 16.7268 6.08727 16.9259L6.03545 16.9777C5.87504 17.1383 5.68454 17.2657 5.47485 17.3526C5.26516 17.4396 5.0404 17.4843 4.81341 17.4843C4.58642 17.4843 4.36165 17.4396 4.15197 17.3526C3.94228 17.2657 3.75178 17.1383 3.59136 16.9777C3.43077 16.8173 3.30337 16.6268 3.21644 16.4171C3.12952 16.2074 3.08478 15.9827 3.08478 15.7557C3.08478 15.5287 3.12952 15.3039 3.21644 15.0942C3.30337 14.8846 3.43077 14.6941 3.59136 14.5336L3.64318 14.4818C3.84228 14.2783 3.97584 14.0198 4.02664 13.7396C4.07744 13.4594 4.04314 13.1705 3.92818 12.91C3.8187 12.6546 3.63693 12.4367 3.40522 12.2833C3.17351 12.1298 2.902 12.0475 2.62409 12.0464H2.47727C2.01917 12.0464 1.57983 11.8644 1.25591 11.5405C0.93198 11.2165 0.75 10.7772 0.75 10.3191C0.75 9.86099 0.93198 9.42165 1.25591 9.09773C1.57983 8.7738 2.01917 8.59182 2.47727 8.59182H2.555C2.84086 8.58513 3.1181 8.4926 3.35067 8.32626C3.58324 8.15992 3.76039 7.92745 3.85909 7.65909C3.97405 7.3986 4.00835 7.10965 3.95755 6.82949C3.90675 6.54933 3.77319 6.29081 3.57409 6.08727L3.52227 6.03545C3.36168 5.87504 3.23428 5.68454 3.14735 5.47485C3.06043 5.26516 3.01569 5.0404 3.01569 4.81341C3.01569 4.58642 3.06043 4.36165 3.14735 4.15197C3.23428 3.94228 3.36168 3.75178 3.52227 3.59136C3.68269 3.43077 3.87319 3.30337 4.08288 3.21644C4.29256 3.12952 4.51733 3.08478 4.74432 3.08478C4.97131 3.08478 5.19607 3.12952 5.40576 3.21644C5.61545 3.30337 5.80595 3.43077 5.96636 3.59136L6.01818 3.64318C6.22172 3.84228 6.48024 3.97584 6.7604 4.02664C7.04056 4.07744 7.32951 4.04314 7.59 3.92818H7.65909C7.91453 3.8187 8.13238 3.63693 8.28583 3.40522C8.43927 3.17351 8.52162 2.902 8.52273 2.62409V2.47727C8.52273 2.01917 8.70471 1.57983 9.02863 1.25591C9.35256 0.93198 9.7919 0.75 10.25 0.75C10.7081 0.75 11.1474 0.93198 11.4714 1.25591C11.7953 1.57983 11.9773 2.01917 11.9773 2.47727V2.555C11.9784 2.83291 12.0607 3.10442 12.2142 3.33613C12.3676 3.56783 12.5855 3.74961 12.8409 3.85909C13.1014 3.97405 13.3903 4.00835 13.6705 3.95755C13.9507 3.90675 14.2092 3.77319 14.4127 3.57409L14.4645 3.52227C14.625 3.36168 14.8155 3.23428 15.0251 3.14735C15.2348 3.06043 15.4596 3.01569 15.6866 3.01569C15.9136 3.01569 16.1383 3.06043 16.348 3.14735C16.5577 3.23428 16.7482 3.36168 16.9086 3.52227C17.0692 3.68269 17.1966 3.87319 17.2836 4.08288C17.3705 4.29256 17.4152 4.51733 17.4152 4.74432C17.4152 4.97131 17.3705 5.19607 17.2836 5.40576C17.1966 5.61545 17.0692 5.80595 16.9086 5.96636L16.8568 6.01818C16.6577 6.22172 16.5242 6.48024 16.4734 6.7604C16.4226 7.04056 16.4569 7.32951 16.5718 7.59V7.65909C16.6813 7.91453 16.8631 8.13238 17.0948 8.28583C17.3265 8.43927 17.598 8.52162 17.8759 8.52273H18.0227C18.4808 8.52273 18.9202 8.70471 19.2441 9.02863C19.568 9.35256 19.75 9.7919 19.75 10.25C19.75 10.7081 19.568 11.1474 19.2441 11.4714C18.9202 11.7953 18.4808 11.9773 18.0227 11.9773H17.945C17.6671 11.9784 17.3956 12.0607 17.1639 12.2142C16.9322 12.3676 16.7504 12.5855 16.6409 12.8409Z" stroke="#BABBC1" stroke-width="1.5" stroke-linecap="round" stroke-linejoin="round"/>
</svg>
